<svg width="65" height="64" viewBox="0 0 65 64" fill="none" xmlns="http://www.w3.org/2000/svg">
<rect width="65" height="64" fill="#E70053"/>
<path d="M9.238 55V45.25H11.188V55H9.238ZM7.366 49.995C7.366 50.567 7.62167 51.0263 8.133 51.373C8.653 51.7197 9.35067 51.893 10.226 51.893C11.1013 51.893 11.799 51.7197 12.319 51.373C12.839 51.0263 13.099 50.567 13.099 49.995C13.099 49.4403 12.839 48.994 12.319 48.656C11.799 48.318 11.1013 48.149 10.226 48.149C9.35067 48.149 8.653 48.318 8.133 48.656C7.62167 48.994 7.366 49.4403 7.366 49.995ZM5.416 49.995C5.416 48.903 5.85367 48.0147 6.729 47.33C7.613 46.6453 8.77867 46.303 10.226 46.303C11.682 46.303 12.8477 46.6453 13.723 47.33C14.607 48.0147 15.049 48.903 15.049 49.995C15.049 51.1043 14.607 52.0057 13.723 52.699C12.8477 53.3923 11.682 53.739 10.226 53.739C8.77867 53.739 7.613 53.3923 6.729 52.699C5.85367 52.0057 5.416 51.1043 5.416 49.995ZM23.8332 55H21.8832V48.994L18.3472 55H16.1242V45.9H18.0742V51.88L21.6102 45.9H23.8332V55ZM25.254 53.18C25.8347 53.18 26.281 52.998 26.593 52.634C26.9137 52.27 27.074 51.8107 27.074 51.256V45.9H33.353V55H31.403V47.72H29.024V51.646C29.024 52.2353 28.881 52.7857 28.595 53.297C28.3177 53.7997 27.906 54.2113 27.36 54.532C26.814 54.844 26.1943 55 25.501 55H24.903V53.18H25.254ZM36.6475 45.9V49.085H39.7025C40.5518 49.085 41.2712 49.371 41.8605 49.943C42.4585 50.5063 42.7575 51.1953 42.7575 52.01C42.7575 52.868 42.4802 53.583 41.9255 54.155C41.3708 54.7183 40.6732 55 39.8325 55H34.6975V45.9H36.6475ZM39.7025 53.076C40.0232 53.076 40.2832 52.9763 40.4825 52.777C40.6905 52.569 40.7945 52.3133 40.7945 52.01C40.7945 51.7327 40.6905 51.4987 40.4825 51.308C40.2745 51.1087 40.0145 51.009 39.7025 51.009H36.6475V53.076H39.7025ZM50.8569 45.9V47.824H48.1659V55H46.2159V47.824H43.5249V45.9H50.8569ZM55.6712 47.824H53.7862V50.45H55.6712C56.1045 50.45 56.4642 50.3243 56.7502 50.073C57.0362 49.813 57.1792 49.4923 57.1792 49.111C57.1792 48.7383 57.0362 48.4307 56.7502 48.188C56.4642 47.9453 56.1045 47.824 55.6712 47.824ZM55.6712 52.374H53.7862V55H51.8362V45.9H55.8012C56.7545 45.9 57.5475 46.2077 58.1802 46.823C58.8128 47.4297 59.1292 48.1923 59.1292 49.111C59.1292 50.021 58.7955 50.7923 58.1282 51.425C57.4608 52.0577 56.6418 52.374 55.6712 52.374Z" fill="white"/>
<path d="M7.704 19.23H12.683V21.05H7.704V19.23ZM7.613 23H5.364L8.874 13.9H11.448L14.971 23H12.722L10.187 15.902L7.613 23ZM21.99 23V13.9H23.94V17.475H27.749V13.9H29.699V23H27.749V19.399H23.94V23H21.99ZM43.9897 13.9V15.824H41.2987V23H39.3487V15.824H36.6577V13.9H43.9897ZM58.658 23H56.708V16.994L53.172 23H50.949V13.9H52.899V19.88L56.435 13.9H58.658V23Z" fill="white"/>
<path d="M7.704 35.23H12.683V37.05H7.704V35.23ZM7.613 39H5.364L8.874 29.9H11.448L14.971 39H12.722L10.187 31.902L7.613 39ZM21.99 39V29.9H23.94V33.475H27.749V29.9H29.699V39H27.749V35.399H23.94V39H21.99ZM43.9897 29.9V31.824H41.2987V39H39.3487V31.824H36.6577V29.9H43.9897ZM58.658 39H56.708V32.994L53.172 39H50.949V29.9H52.899V35.88L56.435 29.9H58.658V39Z" fill="black"/>
</svg>
